#!OML:ASF E:\motion texture\Top Level 1\Subject 1\Session 1\male.ASF
:FULLY-SPECIFIED
:DEGREES
372
root -23.6365 18.0179 3.31063 495.433 -76.8901 -487.438
lowerback -3.13101 -3.23169 8.07608
upperback -5.95318 -4.53121 5.37002
thorax -4.63562 -2.6328 1.16134
lowerneck -5.05688 -12.5287 -15.1114
upperneck 14.7301 -17.1342 8.0269
head 7.34269 -8.66437 3.34417
rclavicle -1.55052e-014 2.26615e-014
rhumerus 5.35957 -17.7167 -64.9734
rradius 62.8156
rwrist -22.4724
rhand -21.92 -44.0718
rfingers 7.12502
rthumb 4.48601 285.996
lclavicle -1.55052e-014 2.26615e-014
lhumerus 8.1809 -21.9691 90.5365
lradius 70.5224
lwrist 13.8832
lhand -11.1055 37.9827
lfingers 7.12502
lthumb 14.9189 67.4254
rfemur 0.12158 3.25375 34.0528
rtibia 12.7606
rfoot -12.1148 -7.49599
rtoes 9.74118
lfemur -25.8661 2.08 -2.04862
ltibia 10.7107
lfoot -5.8421 14.5194
ltoes -16.1565
373
root -23.7862 17.9974 3.29986 495.676 -76.8275 -487.521
lowerback -3.31811 -3.10757 8.05125
upperback -5.96842 -4.38773 5.29308
thorax -4.54315 -2.56052 1.07833
lowerneck -5.20181 -12.4326 -15.0372
upperneck 14.7892 -16.9502 7.84279
head 7.34199 -8.57953 3.29088
rclavicle 7.84702e-014 -9.18385e-014
rhumerus 4.98635 -17.6289 -64.3237
rradius 63.0644
rwrist -21.8202
rhand -22.1286 -43.7402
rfingers 7.12502
rthumb 4.28458 286.323
lclavicle 7.84702e-014 -9.18385e-014
lhumerus 7.90903 -21.7471 90.4636
lradius 70.996
lwrist 13.7861
lhand -11.0642 37.8907
lfingers 7.12502
lthumb 14.9587 67.3305
rfemur 0.312196 3.28672 34.0732
rtibia 13.0994
rfoot -12.432 -7.46424
rtoes 8.55798
lfemur -25.7983 1.36336 -1.76052
ltibia 8.89527
lfoot -6.10983 15.3066
ltoes -16.2807
374
root -23.9362 17.9767 3.29027 495.874 -76.7837 -487.581
lowerback -3.43738 -2.99985 8.03819
upperback -5.99272 -4.25671 5.20172
thorax -4.50127 -2.496 0.980671
lowerneck -5.38046 -12.3296 -14.9527
upperneck 14.8666 -16.758 7.67731
head 7.3533 -8.48838 3.24051
rclavicle -5.397e-014 4.37326e-015
rhumerus 4.50116 -17.4525 -63.6876
rradius 63.3577
rwrist -21.0709
rhand -22.3141 -43.4609
rfingers 7.12502
rthumb 4.10549 286.599
lclavicle -5.397e-014 4.37326e-015
lhumerus 7.55085 -21.5371 90.3955
lradius 71.4586
lwrist 13.6195
lhand -11.0306 37.7967
lfingers 7.12502
lthumb 14.991 67.234
rfemur 0.509701 3.34566 34.0819
rtibia 13.4748
rfoot -12.7486 -7.45227
rtoes 7.33413
lfemur -25.8568 0.89961 -1.59087
ltibia 7.60002
lfoot -6.46462 15.9419
ltoes -16.2807
375
root -24.0862 17.9554 3.28183 495.986 -76.7694 -487.564
lowerback -3.54867 -2.90642 8.01339
upperback -5.99995 -4.14387 5.11123
thorax -4.44527 -2.43885 0.890475
lowerneck -5.59362 -12.2314 -14.8643
upperneck 14.9284 -16.5659 7.51663
head 7.36612 -8.39522 3.18917
rclavicle -4.58696e-014 7.71285e-014
rhumerus 3.94606 -17.2079 -63.0446
rradius 63.6841
rwrist -20.2274
rhand -22.4925 -43.2021
rfingers 7.12502
rthumb 3.93317 286.854
lclavicle -4.58696e-014 7.71285e-014
lhumerus 7.17919 -21.3478 90.3278
lradius 71.8873
lwrist 13.3671
lhand -10.999 37.6741
lfingers 7.12502
lthumb 15.0214 67.1092
rfemur 0.692477 3.42233 34.0808
rtibia 13.9002
rfoot -13.0681 -7.47606
rtoes 6.07459
lfemur -26.0905 0.762258 -1.58372
ltibia 6.91105
lfoot -6.84442 16.3354
ltoes -16.1134
376
root -24.2365 17.9334 3.27455 495.978 -76.7896 -487.445
lowerback -3.66513 -2.82786 7.97098
upperback -5.98548 -4.05167 5.02557
thorax -4.3623 -2.38958 0.813821
lowerneck -5.82376 -12.1403 -14.7813
upperneck 14.9751 -16.3778 7.35277
head 7.3781 -8.30355 3.13623
rclavicle 3.28492e-014 2.3059e-014
rhumerus 3.3201 -16.9055 -62.3874
rradius 64.0369
rwrist -19.2898
rhand -22.6784 -42.9355
rfingers 7.12502
rthumb 3.7537 287.118
lclavicle 3.28492e-014 2.3059e-014
lhumerus 6.79581 -21.1775 90.2738
lradius 72.2731
lwrist 13.0241
lhand -10.9716 37.4999
lfingers 7.12502
lthumb 15.0478 66.9331
rfemur 0.87415 3.50508 34.0696
rtibia 14.3699
rfoot -13.389 -7.53037
rtoes 4.8028
lfemur -26.4939 0.982338 -1.77001
ltibia 6.84622
lfoot -7.12131 16.4492
ltoes -15.8359
377
root -24.3874 17.911 3.2683 495.793 -76.839 -487.178
lowerback -3.80581 -2.76054 7.90892
upperback -5.9201 -3.97851 4.95434
thorax -4.20992 -2.34524 0.758691
lowerneck -6.07331 -12.0608 -14.7183
upperneck 14.966 -16.2 7.22419
head 7.38167 -8.21354 3.0958
rclavicle -5.1684e-015 7.95139e-016
rhumerus 2.66843 -16.5807 -61.723
rradius 64.4046
rwrist -18.2614
rhand -22.9142 -42.6738
rfingers 7.12502
rthumb 3.52591 287.376
lclavicle -5.1684e-015 7.95139e-016
lhumerus 6.46165 -21.0469 90.2162
lradius 72.6099
lwrist 12.5998
lhand -10.9362 37.2859
lfingers 7.12502
lthumb 15.082 66.7165
rfemur 1.07116 3.57674 34.0589
rtibia 14.8729
rfoot -13.697 -7.60841
rtoes 3.51122
lfemur -27.0314 1.49769 -2.12897
ltibia 7.34839
lfoot -7.23468 16.3627
ltoes -15.427
378
root -24.5392 17.8881 3.263 495.449 -76.9061 -486.782
lowerback -3.99709 -2.70038 7.8164
upperback -5.79047 -3.92253 4.90923
thorax -3.95775 -2.30342 0.740739
lowerneck -6.328 -11.9934 -14.6801
upperneck 14.8826 -16.0314 7.1211
head 7.36751 -8.12564 3.06697
rclavicle 2.9768e-014 -7.95139e-016
rhumerus 2.01137 -16.2466 -61.0457
rradius 64.7741
rwrist -17.1663
rhand -23.191 -42.3676
rfingers 7.12502
rthumb 3.25868 287.678
lclavicle 2.9768e-014 -7.95139e-016
lhumerus 6.1813 -20.9268 90.1895
lradius 72.8832
lwrist 12.0759
lhand -10.9148 36.9783
lfingers 7.12502
lthumb 15.1026 66.4073
rfemur 1.27738 3.63251 34.0512
rtibia 15.4283
rfoot -13.9986 -7.69087
rtoes 2.20771
lfemur -27.6527 2.18031 -2.61023
ltibia 8.29989
lfoot -7.18022 16.2063
ltoes -14.9516
